<svg width="134" height="18" viewBox="0 0 134 18" fill="none" xmlns="http://www.w3.org/2000/svg">
<path d="M18.383 3.85904C18.1608 3.8135 17.9565 3.75242 17.7958 3.66874C17.2973 3.40924 16.6911 2.62838 16.3642 2.17224C16.2838 2.0518 16.1985 1.93527 16.1085 1.823C15.8612 2.46639 15.6071 3.45066 15.6071 4.78925C15.6071 7.39679 18.45 9.86341 18.45 12.4052C18.45 13.0473 18.3495 13.6468 18.1997 14.1849C19.0871 13.9301 20.4352 13.9712 20.4352 13.9712C20.6223 13.9707 20.8092 13.958 20.9949 13.9332C21.1082 13.4613 21.1827 12.9498 21.1827 12.4052C21.1827 9.86341 18.3398 7.3968 18.3398 4.78925C18.3398 4.45743 18.3558 4.14775 18.383 3.85904Z" fill="#016AE5"/>
<path d="M21.1038 4.02026C20.8824 3.98411 20.659 3.96526 20.4351 3.96387C20.4351 3.96387 19.262 4.03917 18.383 3.85904C18.3558 4.14775 18.3398 4.45743 18.3398 4.78925C18.3398 7.3968 21.1827 9.86341 21.1827 12.4052C21.1827 12.9498 21.1082 13.4613 20.9949 13.9332C22.1234 13.7814 23.1609 13.1882 23.9105 12.2663C23.8106 9.77342 21.0724 7.34921 21.0724 4.78922C21.0724 4.51727 21.085 4.26324 21.1038 4.02026Z" fill="#0C75EE"/>
<path d="M21.1038 4.02026C21.085 4.26324 21.0419 4.5173 21.0419 4.78926C21.0419 7.34924 23.8106 9.77342 23.9105 12.2663C24.6581 11.3559 25.0422 10.1833 25.0463 8.96749C25.0453 7.76606 24.6434 6.60511 23.9139 5.69678C23.1845 4.78844 22.2066 4.19333 21.1038 4.02026Z" fill="#1682FF"/>
<path d="M1.34848 5.45391C0.4876 6.38818 0.00308298 7.65062 0 8.96746C0.00117826 10.1642 0.40023 11.3209 1.12477 12.2277C1.8493 13.1344 2.85133 13.7312 3.94909 13.9098C4.05915 13.4443 4.13136 12.9407 4.13136 12.4052C4.13136 10.0803 1.75448 7.81833 1.34848 5.45391Z" fill="#FFD058"/>
<path d="M1.34848 5.45391C1.75448 7.81833 4.13136 10.0803 4.13136 12.4052C4.13136 12.9407 4.05915 13.4443 3.94909 13.9098C4.17818 13.9489 4.40966 13.9694 4.6416 13.9712C4.6416 13.9712 5.75946 13.9374 6.62962 14.1236C6.77019 13.6012 6.86407 13.0233 6.86407 12.4053C6.86407 9.86345 4.02114 7.39683 4.02114 4.78928C4.02114 4.51494 4.03366 4.2587 4.05276 4.01385C3.02774 4.15597 2.07605 4.66272 1.34848 5.45391Z" fill="#FFC637"/>
<path d="M4.05276 4.01385C4.03366 4.2587 4.02114 4.51494 4.02114 4.78928C4.02114 7.39683 6.86407 9.86345 6.86407 12.4053C6.86407 13.0233 6.77019 13.6012 6.62962 14.1236C6.87693 14.1765 7.10536 14.2461 7.28105 14.3406C7.76464 14.6007 8.35462 15.3484 8.68783 15.8064C9.11709 15.0111 9.59678 13.81 9.59678 12.4052C9.59678 9.86341 6.75385 7.39679 6.75385 4.78925C6.75385 4.44768 6.77099 4.13034 6.79975 3.83445C6.18227 3.98084 5.38049 3.98707 4.9485 3.97627C4.84636 3.9685 4.744 3.96437 4.6416 3.9639C4.44454 3.96704 4.24786 3.98375 4.05276 4.01385Z" fill="#F7BA1F"/>
<path d="M12.5385 0C11.8512 0.00157102 11.1728 0.167653 10.5523 0.48625C9.77563 0.885024 8.83103 1.49176 8.37186 2.62434C8.05486 3.40624 7.98977 3.62096 7.97391 4.47273C7.91432 7.6736 10.9631 9.86342 10.9631 12.4052C10.9631 14.6138 9.77936 16.3205 9.46841 16.7309C10.3138 17.5436 11.4057 17.995 12.5384 18C13.6708 17.9883 14.7601 17.5308 15.6013 16.7136C15.9263 16.2816 17.0836 14.5917 17.0836 12.4052C17.0836 9.86343 14.2407 7.39681 14.2407 4.78926C14.2407 2.23608 15.1596 0.97111 15.1982 0.919131C14.4202 0.325658 13.4915 0.00474887 12.5385 0Z" fill="#6DBE46"/>
<path d="M23.5561 0.289907C23.5807 0.202726 23.6952 0.202726 23.7198 0.289907L23.9594 1.13858C23.9677 1.16799 23.9891 1.19101 24.0164 1.19997L24.8037 1.45827C24.8845 1.48481 24.8845 1.60824 24.8037 1.63477L24.0164 1.89308C23.9891 1.90203 23.9677 1.92505 23.9594 1.95447L23.7198 2.80314C23.6952 2.89032 23.5807 2.89032 23.5561 2.80314L23.3165 1.95447C23.3082 1.92505 23.2868 1.90203 23.2595 1.89308L22.4722 1.63477C22.3914 1.60824 22.3914 1.48481 22.4722 1.45827L23.2595 1.19997C23.2868 1.19101 23.3082 1.16799 23.3165 1.13858L23.5561 0.289907Z" fill="#F7BA1F"/>
<path d="M131.545 13.7143V0H133.647V13.7143H131.545Z" fill="#666666"/>
<path d="M127.441 13.7143V0H129.543V13.7143H127.441Z" fill="#666666"/>
<path d="M121.583 13.9714C120.788 13.9714 120.061 13.7667 119.401 13.3572C118.749 12.9476 118.231 12.4 117.848 11.7143C117.464 11.0286 117.272 10.2667 117.272 9.42859C117.272 8.5905 117.464 7.82859 117.848 7.14288C118.231 6.45717 118.749 5.90955 119.401 5.50003C120.061 5.0905 120.784 4.88574 121.569 4.88574C122.372 4.88574 123.1 5.0905 123.751 5.50003C124.403 5.90955 124.921 6.45717 125.304 7.14288C125.697 7.81907 125.893 8.58097 125.893 9.42859C125.893 10.2572 125.697 11.0191 125.304 11.7143C124.921 12.4 124.403 12.9476 123.751 13.3572C123.1 13.7667 122.377 13.9714 121.583 13.9714ZM121.569 11.9429C122.007 11.9429 122.399 11.8286 122.747 11.6C123.095 11.3714 123.372 11.0667 123.577 10.6857C123.783 10.3048 123.885 9.88573 123.885 9.42859C123.885 8.96193 123.783 8.54288 123.577 8.17145C123.372 7.7905 123.095 7.48574 122.747 7.25717C122.399 7.0286 122.007 6.91431 121.569 6.91431C121.141 6.91431 120.753 7.0286 120.405 7.25717C120.057 7.48574 119.78 7.7905 119.575 8.17145C119.369 8.54288 119.267 8.96193 119.267 9.42859C119.267 9.88573 119.369 10.3048 119.575 10.6857C119.78 11.0667 120.057 11.3714 120.405 11.6C120.753 11.8286 121.141 11.9429 121.569 11.9429Z" fill="#666666"/>
<path d="M111.859 13.7142V5.14281H113.746V6.64281C114.032 6.14757 114.389 5.76186 114.817 5.48567C115.255 5.19996 115.772 5.0571 116.37 5.0571L116.839 7.08567C116.669 7.02852 116.477 6.99995 116.263 6.99995C115.567 6.99995 115.009 7.23805 114.59 7.71424C114.17 8.19043 113.961 8.86662 113.961 9.7428V13.7142H111.859Z" fill="#666666"/>
<path d="M102.506 18L105.17 12.3143L101.864 5.14288H104.193L105.679 8.42859C105.813 8.72383 105.933 9.00002 106.041 9.25716C106.148 9.5143 106.241 9.78097 106.322 10.0572C106.411 9.78097 106.509 9.5143 106.616 9.25716C106.732 9.00002 106.862 8.72383 107.004 8.42859L108.517 5.14288H110.753L104.769 18H102.506Z" fill="#666666"/>
<path d="M96.3307 13.9142C95.5988 13.9142 94.9295 13.7142 94.3226 13.3142C93.7157 12.9047 93.2293 12.3618 92.8634 11.6857C92.5064 10.9999 92.3279 10.2476 92.3279 9.42852C92.3279 8.60947 92.5064 7.86185 92.8634 7.18566C93.2293 6.49995 93.7157 5.95709 94.3226 5.55709C94.9295 5.14757 95.5988 4.94281 96.3307 4.94281C96.8572 4.94281 97.3436 5.04281 97.7899 5.24281C98.2361 5.44281 98.6154 5.72376 98.9278 6.08567V5.14281H100.762V13.7142H98.9278V12.7714C98.6154 13.1237 98.2361 13.4047 97.7899 13.6142C97.3436 13.8142 96.8572 13.9142 96.3307 13.9142ZM96.585 11.9285C97.0134 11.9285 97.3972 11.8142 97.7363 11.5857C98.0844 11.3571 98.361 11.0571 98.5663 10.6857C98.7716 10.3047 98.8742 9.88566 98.8742 9.42852C98.8742 8.97137 98.7716 8.55709 98.5663 8.18566C98.361 7.80471 98.0844 7.49995 97.7363 7.27138C97.3972 7.04281 97.0179 6.92852 96.5984 6.92852C96.17 6.92852 95.7818 7.04281 95.4337 7.27138C95.0946 7.49995 94.8224 7.80471 94.6171 8.18566C94.4118 8.55709 94.3092 8.97137 94.3092 9.42852C94.3092 9.88566 94.4118 10.3047 94.6171 10.6857C94.8224 11.0571 95.0946 11.3571 95.4337 11.5857C95.7818 11.8142 96.1655 11.9285 96.585 11.9285Z" fill="#666666"/>
<path d="M83.8525 13.7142V0.857117H87.3198C88.1498 0.857117 88.8504 0.99045 89.4216 1.25712C90.0017 1.51426 90.4658 1.86188 90.8139 2.29997C91.1709 2.72854 91.4297 3.19521 91.5903 3.69997C91.751 4.19521 91.8313 4.69044 91.8313 5.18568C91.8313 5.66187 91.751 6.15235 91.5903 6.65711C91.4386 7.15234 91.1843 7.61901 90.8273 8.0571C90.4703 8.48568 90.0062 8.83329 89.435 9.09996C88.8638 9.3571 88.1588 9.48567 87.3198 9.48567H85.9677V13.7142H83.8525ZM85.9677 7.45711H87.1993C87.8152 7.45711 88.2971 7.34282 88.6452 7.11425C89.0021 6.88568 89.2565 6.59996 89.4082 6.25711C89.5689 5.90473 89.6492 5.54282 89.6492 5.1714C89.6492 4.81901 89.5733 4.46663 89.4216 4.11425C89.2788 3.76187 89.0289 3.4714 88.6719 3.24283C88.3149 3.00473 87.8241 2.88568 87.1993 2.88568H85.9677V7.45711Z" fill="#666666"/>
<path d="M73.8812 13.9143C73.3635 13.9143 72.8816 13.8143 72.4353 13.6143C71.998 13.4143 71.6187 13.1428 71.2974 12.8V13.7143H69.4634V0H71.5652V5.79999C71.8775 5.53332 72.2256 5.3238 72.6094 5.17142C73.0021 5.01904 73.426 4.94285 73.8812 4.94285C74.6308 4.94285 75.3091 5.14761 75.916 5.55713C76.5229 5.95713 77.0048 6.49523 77.3618 7.17142C77.7277 7.84761 77.9107 8.59999 77.9107 9.42856C77.9107 10.2476 77.7277 11 77.3618 11.6857C77.0048 12.3619 76.5229 12.9047 75.916 13.3143C75.3091 13.7143 74.6308 13.9143 73.8812 13.9143ZM73.6268 11.9286C74.0552 11.9286 74.439 11.8143 74.7781 11.5857C75.1262 11.3571 75.4028 11.0571 75.6081 10.6857C75.8134 10.3047 75.916 9.8857 75.916 9.42856C75.916 8.97141 75.8134 8.55713 75.6081 8.1857C75.4028 7.80475 75.1262 7.49999 74.7781 7.27142C74.439 7.04285 74.0597 6.92856 73.6402 6.92856C73.2118 6.92856 72.8236 7.04285 72.4755 7.27142C72.1364 7.49999 71.8641 7.80475 71.6589 8.1857C71.4536 8.55713 71.351 8.97141 71.351 9.42856C71.351 9.8857 71.4536 10.3047 71.6589 10.6857C71.8641 11.0571 72.1364 11.3571 72.4755 11.5857C72.8236 11.8143 73.2073 11.9286 73.6268 11.9286Z" fill="#333333"/>
<path d="M63.0467 13.9142C62.3149 13.9142 61.6455 13.7142 61.0386 13.3142C60.4317 12.9047 59.9454 12.3618 59.5794 11.6857C59.2224 10.9999 59.0439 10.2476 59.0439 9.42852C59.0439 8.60947 59.2224 7.86185 59.5794 7.18566C59.9454 6.49995 60.4317 5.95709 61.0386 5.55709C61.6455 5.14757 62.3149 4.94281 63.0467 4.94281C63.5733 4.94281 64.0597 5.04281 64.5059 5.24281C64.9522 5.44281 65.3315 5.72376 65.6438 6.08567V5.14281H67.4779V13.7142H65.6438V12.7714C65.3315 13.1237 64.9522 13.4047 64.5059 13.6142C64.0597 13.8142 63.5733 13.9142 63.0467 13.9142ZM63.3011 11.9285C63.7295 11.9285 64.1132 11.8142 64.4524 11.5857C64.8004 11.3571 65.0771 11.0571 65.2824 10.6857C65.4876 10.3047 65.5903 9.88566 65.5903 9.42852C65.5903 8.97137 65.4876 8.55709 65.2824 8.18566C65.0771 7.80471 64.8004 7.49995 64.4524 7.27138C64.1132 7.04281 63.7339 6.92852 63.3145 6.92852C62.8861 6.92852 62.4978 7.04281 62.1498 7.27138C61.8106 7.49995 61.5384 7.80471 61.3332 8.18566C61.1279 8.55709 61.0252 8.97137 61.0252 9.42852C61.0252 9.88566 61.1279 10.3047 61.3332 10.6857C61.5384 11.0571 61.8106 11.3571 62.1498 11.5857C62.4978 11.8142 62.8816 11.9285 63.3011 11.9285Z" fill="#333333"/>
<path d="M50.0542 13.7143V0H52.156V5.92856C52.4416 5.5857 52.7807 5.32856 53.1734 5.15713C53.5661 4.97618 53.9811 4.88571 54.4184 4.88571C54.9896 4.88571 55.5206 5.03332 56.0115 5.32856C56.5113 5.6238 56.9129 6.05237 57.2163 6.61427C57.5198 7.16665 57.6715 7.84284 57.6715 8.64284V13.7143H55.5697V8.94284C55.5697 8.40951 55.4225 7.93808 55.1279 7.52856C54.8334 7.11904 54.414 6.91427 53.8696 6.91427C53.4233 6.91427 53.0262 7.08094 52.6781 7.41427C52.33 7.73808 52.156 8.23332 52.156 8.89999V13.7143H50.0542Z" fill="#333333"/>
<path d="M43.6375 13.9142C42.9057 13.9142 42.2363 13.7142 41.6295 13.3142C41.0226 12.9047 40.5362 12.3618 40.1703 11.6857C39.8133 10.9999 39.6348 10.2476 39.6348 9.42852C39.6348 8.60947 39.8133 7.86185 40.1703 7.18566C40.5362 6.49995 41.0226 5.95709 41.6295 5.55709C42.2363 5.14757 42.9057 4.94281 43.6375 4.94281C44.1641 4.94281 44.6505 5.04281 45.0967 5.24281C45.543 5.44281 45.9223 5.72376 46.2347 6.08567V5.14281H48.0687V13.7142H46.2347V12.7714C45.9223 13.1237 45.543 13.4047 45.0967 13.6142C44.6505 13.8142 44.1641 13.9142 43.6375 13.9142ZM43.8919 11.9285C44.3203 11.9285 44.7041 11.8142 45.0432 11.5857C45.3913 11.3571 45.6679 11.0571 45.8732 10.6857C46.0785 10.3047 46.1811 9.88566 46.1811 9.42852C46.1811 8.97138 46.0785 8.55709 45.8732 8.18566C45.6679 7.80471 45.3913 7.49995 45.0432 7.27138C44.7041 7.04281 44.3247 6.92852 43.9053 6.92852C43.4769 6.92852 43.0887 7.04281 42.7406 7.27138C42.4015 7.49995 42.1292 7.80471 41.924 8.18566C41.7187 8.55709 41.6161 8.97138 41.6161 9.42852C41.6161 9.88566 41.7187 10.3047 41.924 10.6857C42.1292 11.0571 42.4015 11.3571 42.7406 11.5857C43.0887 11.8142 43.4724 11.9285 43.8919 11.9285Z" fill="#333333"/>
<path d="M34.6074 13.9714C33.8845 13.9714 33.2017 13.8238 32.5591 13.5285C31.9255 13.2333 31.4212 12.8761 31.0464 12.4571L31.6488 9.82853C31.9433 10.4 32.3673 10.8857 32.9206 11.2857C33.4739 11.6761 34.063 11.8714 34.6877 11.8714C35.2143 11.8714 35.6337 11.7142 35.9461 11.4C36.2585 11.0761 36.4147 10.6809 36.4147 10.2142C36.4147 9.84282 36.3343 9.53805 36.1737 9.29996C36.013 9.06186 35.8256 8.87139 35.6114 8.72853C35.3972 8.57615 35.2143 8.46187 35.0625 8.38568L33.6301 7.61425C33.2642 7.41425 32.8983 7.17615 32.5324 6.89996C32.1664 6.61425 31.8585 6.25235 31.6086 5.81425C31.3677 5.36663 31.2472 4.81425 31.2472 4.15711C31.2472 3.45235 31.3989 2.8333 31.7024 2.29997C32.0058 1.76664 32.4297 1.35236 32.9741 1.05712C33.5275 0.752356 34.1656 0.599976 34.8885 0.599976C35.5846 0.599976 36.2049 0.723785 36.7493 0.971404C37.2937 1.2095 37.7311 1.46664 38.0613 1.74283L37.4856 4.31425C37.1643 3.84759 36.7627 3.45711 36.2808 3.14283C35.7988 2.82854 35.3035 2.6714 34.7948 2.6714C34.3307 2.6714 33.9693 2.80473 33.7104 3.0714C33.4605 3.32854 33.3356 3.65235 33.3356 4.04283C33.3356 4.29997 33.3891 4.52378 33.4962 4.71425C33.6123 4.90473 33.7595 5.0714 33.938 5.21425C34.1254 5.34759 34.3263 5.4714 34.5404 5.58568L35.9996 6.35711C36.2228 6.47139 36.4727 6.62377 36.7493 6.81425C37.0349 7.00473 37.3116 7.24758 37.5793 7.54282C37.8471 7.82853 38.0657 8.18091 38.2353 8.59996C38.4138 9.00949 38.5031 9.49996 38.5031 10.0714C38.5031 10.8142 38.3379 11.4809 38.0077 12.0714C37.6864 12.6523 37.2357 13.1142 36.6556 13.4571C36.0844 13.8 35.4017 13.9714 34.6074 13.9714Z" fill="#333333"/>
</svg>
