<svg width="18" height="18" viewBox="0 0 18 18" fill="none" xmlns="http://www.w3.org/2000/svg">
<path d="M8.16667 1.83333H5.5C4.09987 1.83333 3.3998 1.83333 2.86502 2.10582C2.39462 2.3455 2.01217 2.72795 1.77248 3.19836C1.5 3.73314 1.5 4.4332 1.5 5.83333V10.1667C1.5 10.9416 1.5 11.3291 1.58519 11.647C1.81635 12.5098 2.49022 13.1836 3.35295 13.4148C3.67087 13.5 4.05836 13.5 4.83333 13.5V15.4463C4.83333 15.8903 4.83333 16.1123 4.92436 16.2263C5.00352 16.3255 5.12356 16.3832 5.25045 16.3831C5.39636 16.3829 5.56973 16.2442 5.91646 15.9668L7.90434 14.3765C8.31043 14.0517 8.51347 13.8892 8.73957 13.7737C8.94017 13.6712 9.15369 13.5963 9.37435 13.551C9.62306 13.5 9.88308 13.5 10.4031 13.5H11.6667C13.0668 13.5 13.7669 13.5 14.3016 13.2275C14.772 12.9878 15.1545 12.6054 15.3942 12.135C15.6667 11.6002 15.6667 10.9001 15.6667 9.5V9.33333M15.7678 1.73223C16.7441 2.70854 16.7441 4.29146 15.7678 5.26777C14.7915 6.24408 13.2085 6.24408 12.2322 5.26777C11.2559 4.29146 11.2559 2.70854 12.2322 1.73223C13.2085 0.755922 14.7915 0.755922 15.7678 1.73223Z" stroke="#667085" stroke-width="1.67" stroke-linecap="round" stroke-linejoin="round"/>
</svg>
