<svg width="20" height="15" viewBox="0 0 20 15" fill="none" xmlns="http://www.w3.org/2000/svg">
<path d="M2.08332 7.5H4.90163C5.47263 7.5 5.99463 7.82261 6.24999 8.33333C6.50535 8.84405 7.02735 9.16667 7.59835 9.16667H12.4016C12.9726 9.16667 13.4946 8.84405 13.75 8.33333C14.0054 7.82261 14.5273 7.5 15.0984 7.5H17.9167M7.47213 0.833332H12.5279C13.4252 0.833332 13.8739 0.833332 14.2701 0.969969C14.6204 1.0908 14.9395 1.288 15.2042 1.54729C15.5036 1.8405 15.7042 2.24183 16.1056 3.04448L17.911 6.65542C18.0685 6.9704 18.1473 7.1279 18.2028 7.29295C18.2521 7.43954 18.2877 7.59039 18.3092 7.74355C18.3333 7.91602 18.3333 8.0921 18.3333 8.44427V10.1667C18.3333 11.5668 18.3333 12.2669 18.0608 12.8016C17.8212 13.272 17.4387 13.6545 16.9683 13.8942C16.4335 14.1667 15.7335 14.1667 14.3333 14.1667H5.66666C4.26653 14.1667 3.56646 14.1667 3.03168 13.8942C2.56128 13.6545 2.17882 13.272 1.93914 12.8016C1.66666 12.2669 1.66666 11.5668 1.66666 10.1667V8.44427C1.66666 8.0921 1.66666 7.91602 1.6908 7.74355C1.71224 7.59039 1.74785 7.43954 1.79717 7.29295C1.85271 7.1279 1.93146 6.9704 2.08895 6.65542L3.89442 3.04448C4.29574 2.24182 4.49641 1.8405 4.79578 1.54729C5.06052 1.288 5.37959 1.0908 5.7299 0.969969C6.12603 0.833332 6.57473 0.833332 7.47213 0.833332Z" stroke="#667085" stroke-width="1.67" stroke-linecap="round" stroke-linejoin="round"/>
</svg>
