<svg width="18" height="18" viewBox="0 0 18 18" fill="none" xmlns="http://www.w3.org/2000/svg">
<path d="M9 9.75V4.75M6.5 7.25H11.5M4.83333 13.5V15.4463C4.83333 15.8903 4.83333 16.1123 4.92436 16.2263C5.00352 16.3255 5.12356 16.3832 5.25045 16.3831C5.39636 16.3829 5.56973 16.2442 5.91646 15.9668L7.90434 14.3765C8.31043 14.0517 8.51347 13.8892 8.73957 13.7737C8.94017 13.6712 9.15369 13.5963 9.37435 13.551C9.62306 13.5 9.88308 13.5 10.4031 13.5H12.5C13.9001 13.5 14.6002 13.5 15.135 13.2275C15.6054 12.9878 15.9878 12.6054 16.2275 12.135C16.5 11.6002 16.5 10.9001 16.5 9.5V5C16.5 3.59987 16.5 2.8998 16.2275 2.36502C15.9878 1.89462 15.6054 1.51217 15.135 1.27248C14.6002 1 13.9001 1 12.5 1H5.5C4.09987 1 3.3998 1 2.86502 1.27248C2.39462 1.51217 2.01217 1.89462 1.77248 2.36502C1.5 2.8998 1.5 3.59987 1.5 5V10.1667C1.5 10.9416 1.5 11.3291 1.58519 11.647C1.81635 12.5098 2.49022 13.1836 3.35295 13.4148C3.67087 13.5 4.05836 13.5 4.83333 13.5Z" stroke="#667085" stroke-width="1.66667" stroke-linecap="round" stroke-linejoin="round"/>
</svg>
