<svg width="48" height="49" viewBox="0 0 48 49" fill="none" xmlns="http://www.w3.org/2000/svg">
<path d="M0 24.5C0 11.2452 10.7452 0.5 24 0.5C37.2548 0.5 48 11.2452 48 24.5C48 37.7548 37.2548 48.5 24 48.5C10.7452 48.5 0 37.7548 0 24.5Z" fill="#E3F3FF"/>
<path opacity="0.12" d="M21 17.5C21 15.8431 22.3431 14.5 24 14.5C25.6569 14.5 27 15.8431 27 17.5V24.5C27 26.1569 25.6569 27.5 24 27.5C22.3431 27.5 21 26.1569 21 24.5V17.5Z" fill="#0365D6"/>
<path d="M31 22.5V24.5C31 28.366 27.866 31.5 24 31.5M17 22.5V24.5C17 28.366 20.134 31.5 24 31.5M24 31.5V34.5M20 34.5H28M24 27.5C22.3431 27.5 21 26.1569 21 24.5V17.5C21 15.8431 22.3431 14.5 24 14.5C25.6569 14.5 27 15.8431 27 17.5V24.5C27 26.1569 25.6569 27.5 24 27.5Z" stroke="#0365D6" stroke-width="1.66" stroke-linecap="round" stroke-linejoin="round"/>
</svg>
