<svg width="16" height="17" viewBox="0 0 16 17" fill="none" xmlns="http://www.w3.org/2000/svg">
<path d="M8.00001 11C5.35828 11 3.00901 12.2755 1.51334 14.255C1.19143 14.681 1.03047 14.894 1.03574 15.1819C1.03981 15.4043 1.17948 15.6849 1.35448 15.8222C1.581 16 1.8949 16 2.5227 16H13.4773C14.1051 16 14.419 16 14.6455 15.8222C14.8205 15.6849 14.9602 15.4043 14.9643 15.1819C14.9695 14.894 14.8086 14.681 14.4867 14.255C12.991 12.2755 10.6417 11 8.00001 11Z" stroke="#667085" stroke-width="1.67" stroke-linecap="round" stroke-linejoin="round"/>
<path d="M8.00001 8.5C10.0711 8.5 11.75 6.82107 11.75 4.75C11.75 2.67893 10.0711 1 8.00001 1C5.92894 1 4.25001 2.67893 4.25001 4.75C4.25001 6.82107 5.92894 8.5 8.00001 8.5Z" stroke="#667085" stroke-width="1.67" stroke-linecap="round" stroke-linejoin="round"/>
</svg>
