<svg width="22" height="20" viewBox="0 0 22 20" fill="none" xmlns="http://www.w3.org/2000/svg">
<path d="M9.5 10H4M3.91534 10.2915L1.58042 17.2662C1.39699 17.8141 1.30527 18.0881 1.37109 18.2568C1.42825 18.4033 1.55102 18.5144 1.7025 18.5567C1.87693 18.6054 2.1404 18.4868 2.66733 18.2497L19.3788 10.7295C19.8931 10.4981 20.1503 10.3824 20.2298 10.2216C20.2988 10.0819 20.2988 9.91807 20.2298 9.7784C20.1503 9.61764 19.8931 9.50192 19.3788 9.27047L2.66151 1.74773C2.13616 1.51132 1.87349 1.39312 1.69923 1.44161C1.54789 1.48372 1.42514 1.59451 1.36778 1.74075C1.30174 1.90914 1.39247 2.18252 1.57395 2.72928L3.91599 9.78553C3.94716 9.87944 3.96275 9.92639 3.9689 9.97441C3.97436 10.017 3.9743 10.0602 3.96873 10.1028C3.96246 10.1508 3.94675 10.1977 3.91534 10.2915Z" stroke="#0365D6" stroke-width="1.66" stroke-linecap="round" stroke-linejoin="round"/>
</svg>
