<svg width="27" height="27" viewBox="0 0 27 27" fill="none" xmlns="http://www.w3.org/2000/svg">
<path d="M12.6099 0.826048C12.8774 -0.0531202 14.1225 -0.0531202 14.39 0.826048L16.9951 9.38556C17.0852 9.68203 17.3177 9.9142 17.6145 10.0047L26.1737 12.6097C27.0532 12.8778 27.0532 14.1222 26.1737 14.3903L17.6145 16.9953C17.3177 17.0858 17.0852 17.318 16.9951 17.6145L14.39 26.174C14.1225 27.0531 12.8774 27.0531 12.6099 26.174L10.0048 17.6145C9.91415 17.318 9.68221 17.0858 9.38543 16.9953L0.826217 14.3903C-0.0532376 14.1222 -0.0532376 12.8778 0.826217 12.6097L9.38543 10.0047C9.68221 9.9142 9.91415 9.68203 10.0048 9.38556L12.6099 0.826048Z" fill="#F7BA1F"/>
</svg>
